<?xml version="1.0" encoding="UTF-8" standalone="no"?>
<svg
   xmlns:dc="http://purl.org/dc/elements/1.1/"
   xmlns:cc="http://creativecommons.org/ns#"
   xmlns:rdf="http://www.w3.org/1999/02/22-rdf-syntax-ns#"
   xmlns:svg="http://www.w3.org/2000/svg"
   xmlns="http://www.w3.org/2000/svg"
   viewBox="0 0 613.31952 613.31952"
   height="613.31952"
   width="613.31952"
   id="svg2"
   version="1.1">
  <metadata
     id="metadata8">
    <rdf:RDF>
      <cc:Work
         rdf:about="">
        <dc:format>image/svg+xml</dc:format>
        <dc:type
           rdf:resource="http://purl.org/dc/dcmitype/StillImage" />
        <dc:title></dc:title>
      </cc:Work>
    </rdf:RDF>
  </metadata>
  <defs
     id="defs6" />
  <path
     id="path14"
     d="M 270.83928,611.19724 C 166.09521,598.50794 76.005386,534.21095 30.549181,439.7025 -26.15461,321.80908 -2.5155138,182.2209 89.784246,89.921141 155.5358,24.169589 249.18657,-8.6895217 340.4164,1.9822053 446.46931,14.387882 536.62384,78.301511 582.44197,173.56243 c 56.70379,117.89342 33.0647,257.4816 -59.23507,349.78136 -65.99993,65.99994 -160.68284,98.96066 -252.36762,87.85345 z m 71.83811,-41.17147 c 27.83441,-3.70552 53.15817,-11.45892 80.86747,-24.75927 73.75574,-35.40243 126.31902,-103.33 143.73968,-185.7549 4.6715,-22.10288 5.93472,-64.34356 2.63074,-87.96882 C 558.56808,190.40393 513.56058,120.87766 445.94379,80.035181 411.8949,59.46868 375.90651,47.037826 337.82891,42.690914 320.50159,40.712839 285.38608,41.03189 269.33569,43.313226 157.364,59.228428 69.153676,142.09053 45.796537,253.29913 c -4.27681,20.36285 -5.977561,61.77382 -3.426755,83.43679 11.690296,99.28099 73.407188,179.79767 166.641338,217.40253 15.40581,6.21374 37.98513,12.11721 57.83701,15.12176 20.21866,3.06005 55.88881,3.42017 75.82926,0.76556 z m 83.14376,-98.59629 c -5.01213,-2.53649 -20.54784,-17.33546 -62.37881,-59.4207 -30.63742,-30.82363 -56.33867,-56.04298 -57.11389,-56.04298 -0.77521,0 -26.40474,24.92616 -56.95452,55.39147 -62.71037,62.53699 -62.81977,62.6228 -78.69316,61.72588 -17.87247,-1.00989 -29.62599,-12.76341 -30.63588,-30.63588 -0.87892,-15.55473 0.54095,-17.47645 46.74573,-63.2679 22.20439,-22.00574 47.47489,-47.28461 56.15667,-56.17526 l 15.78506,-16.16482 -56.16483,-56.43675 c -63.37222,-63.67904 -63.41808,-63.73743 -62.52263,-79.58488 1.00989,-17.87247 12.76341,-29.62599 30.63588,-30.63588 15.89544,-0.89817 15.92889,-0.87171 78.92447,62.41584 30.67699,30.81916 56.37161,56.03484 57.09918,56.03484 0.72756,0 26.44516,-25.05 57.15022,-55.66667 63.26709,-63.08493 63.82801,-63.52813 79.43746,-62.76481 18.14912,0.88749 29.96744,12.5644 30.98749,30.61668 0.89807,15.89355 0.87084,15.92799 -62.41406,78.96727 -30.82014,30.70053 -56.03662,56.62543 -56.03662,57.6109 0,0.98546 24.75,26.71146 55,57.16888 62.29522,62.72236 62.85287,63.43059 62.09815,78.86428 -0.89708,18.34496 -12.65984,30.09769 -30.96829,30.94188 -8.01598,0.3696 -10.48392,-0.0803 -16.13762,-2.94139 z"
     style="fill:#060606;stroke-width:1.33333337" />
</svg>
