<?xml version="1.0" encoding="UTF-8" standalone="no"?>
<svg
   xmlns:dc="http://purl.org/dc/elements/1.1/"
   xmlns:cc="http://creativecommons.org/ns#"
   xmlns:rdf="http://www.w3.org/1999/02/22-rdf-syntax-ns#"
   xmlns:svg="http://www.w3.org/2000/svg"
   xmlns="http://www.w3.org/2000/svg"
   viewBox="0 0 2336.1099 2336.1098"
   height="2336.1099"
   width="2336.1099"
   id="svg2"
   version="1.1">
  <metadata
     id="metadata8">
    <rdf:RDF>
      <cc:Work
         rdf:about="">
        <dc:format>image/svg+xml</dc:format>
        <dc:type
           rdf:resource="http://purl.org/dc/dcmitype/StillImage" />
        <dc:title></dc:title>
      </cc:Work>
    </rdf:RDF>
  </metadata>
  <defs
     id="defs6" />
  <path
     id="path12"
     d="m 1102.6695,2334.687 c -265.34516,-14.9945 -516.33893,-119.4972 -716.6526,-298.3821 -31.99852,-28.5755 -97.9327,-96.5948 -106.90018,-110.2809 -1.64896,-2.5167 -1.62071,-4.6274 0.21478,-16.0418 3.81627,-23.7326 11.31394,-55.637 15.30906,-65.1438 2.15721,-5.1334 7.77341,-19.2334 12.48045,-31.3334 56.12079,-144.2652 150.35867,-274.2982 271.54847,-374.6929 107.5097,-89.062 241.97224,-156.1058 375.843,-187.3972 19.63753,-4.5902 24.157,-6.8135 24.157,-11.8841 0,-4.511 -4.91534,-8.0927 -19.3458,-14.097 C 911.09857,1205.3682 863.05641,1176.0004 823.117,1142.1717 766.96657,1094.6122 722.53476,1039.0563 689.82244,975.50509 658.58518,914.81948 641.17642,857.55787 632.4597,786.82511 c -3.34894,-27.17532 -3.34894,-90.1314 0,-117.30672 5.24358,-42.54955 12.32672,-74.47187 24.85428,-112.01331 53.6042,-160.63612 179.38604,-286.41796 340.02216,-340.02216 37.54146,-12.52756 69.46376,-19.6107 112.01326,-24.85428 27.1754,-3.34894 90.1314,-3.34894 117.3068,0 42.5495,5.24358 74.4718,12.32672 112.0133,24.85428 160.6361,53.6042 286.418,179.38604 340.0221,340.02216 12.5276,37.54144 19.6107,69.46376 24.8543,112.01331 1.7953,14.56753 2.3809,28.99556 2.3809,58.65336 0,50.80564 -3.6441,82.45211 -14.7393,128 -16.708,68.58934 -49.2739,137.58314 -91.6604,194.19135 -57.4694,76.7517 -132.8619,135.9055 -221.5243,173.8104 -17.0815,7.3026 -22,10.7361 -22,15.3573 0,5.0816 4.6055,7.3659 24.1967,12.0013 73.1741,17.3135 146.0537,44.2118 211.3094,77.99 172.4036,89.2408 309.9027,226.7399 399.1435,399.1435 16.1972,31.2912 38.2893,81.8308 47.1395,107.8394 0.4366,1.2834 1.614,2.3334 2.6164,2.3334 1.0024,0 8.0324,-8.5335 15.6224,-18.9634 85.6916,-117.7545 146.5957,-247.7057 180.7468,-385.6594 13.2972,-53.7143 20.335,-95.9082 26.8061,-160.7106 4.7383,-47.4497 4.86,-50.0669 4.8687,-104.6666 0.013,-49.959 -0.3715,-60.1712 -3.5172,-94.6667 -5.0674,-55.5674 -8.2554,-78.45291 -17.0875,-122.66661 C 2217.7617,800.89444 2154.5741,654.77104 2065.4055,529.60122 2013.9739,457.4046 1959.0039,396.6267 1892.6695,338.61448 1780.9724,240.93082 1649.9261,166.44771 1509.9565,121.09117 1445.1821,100.10128 1366.9304,82.63943 1306.0028,75.57894 c -53.6191,-6.21355 -81.8783,-7.84187 -137.3333,-7.91327 -49.2337,-0.0634 -58.642,0.29136 -94.6667,3.56951 -22,2.00195 -48.7,4.86603 -59.3333,6.36462 C 777.78168,110.98513 559.36766,219.77674 389.89786,388.79736 259.06273,519.28572 166.05809,674.79363 113.18835,851.46802 68.738514,1000.0057 56.038554,1157.1574 76.065094,1310.8384 c 14.32894,109.9584 44.394566,215.1138 89.777666,314 l 13.46232,29.3333 0.0156,10.7712 c 0.014,9.6767 -0.39454,11.4345 -4.01972,17.2981 -5.64939,9.1376 -14.3934,14.3284 -25.3073,15.0234 -9.77941,0.6228 -15.66082,-1.028 -23.25023,-6.5258 -4.59296,-3.3272 -6.93392,-7.0037 -14.60068,-22.9313 C 62.053674,1563.7481 25.721934,1440.9145 10.107744,1322.8384 -14.808016,1134.4228 6.5971438,939.89239 71.469874,765.17823 150.7967,551.53656 285.7915,369.95326 466.00281,234.48668 626.1079,114.13414 815.90818,36.38423 1013.3361,10.276688 c 188.4156,-24.915762 382.9462,-3.5106062 557.6602,61.362122 213.6417,79.32683 395.225,214.32163 530.6916,394.53294 120.3525,160.10509 198.1024,349.90537 224.21,547.33325 15.9374,120.5209 13.1918,243.7299 -8.0374,360.6667 -33.008,181.8185 -106.0177,349.3509 -216.1542,496 -19.3939,25.8232 -20.3384,26.8421 -29.8654,32.2164 -5.4109,3.0523 -14.3381,7.1624 -19.8381,9.1336 -8.9293,3.2003 -11.1985,3.4959 -21.1947,2.7609 -8.5904,-0.6316 -12.7686,-1.6708 -17.9606,-4.467 -7.656,-4.1232 -23.5008,-18.4708 -27.3716,-24.7852 -1.4135,-2.3056 -6.4267,-14.692 -11.1406,-27.5254 -37.6776,-102.5748 -93.0252,-195.7337 -164.3734,-276.6666 -16.4374,-18.6455 -54.1615,-56.0708 -73.7995,-73.2148 -109.8459,-95.896 -239.9965,-161.8519 -381.9319,-193.5499 -17.8348,-3.983 -23.8069,-5.988 -36.7237,-12.3293 -27.8267,-13.6609 -35.6197,-24.798 -38.8861,-55.5727 -2.7907,-26.2931 -0.098,-35.2437 15.88,-52.7918 8.9185,-9.7948 19.0011,-15.7243 39.4397,-23.1941 63.5859,-23.239 122.1808,-61.6614 172.0889,-112.8437 80.003,-82.04511 124.622,-182.81062 132.7682,-299.83702 2.2377,-32.1463 0.7564,-62.09876 -4.9095,-99.26601 -6.4825,-42.52516 -12.8443,-66.98827 -26.5432,-102.06732 -43.5316,-111.47199 -123.9031,-199.03377 -230.6753,-251.31243 -46.1366,-22.5897 -84.498,-34.34236 -139.2736,-42.66873 -61.7125,-9.38085 -115.5487,-7.49513 -176.0598,6.16684 -20.8209,4.70088 -58.7098,16.90615 -77.99996,25.12643 -38.04084,16.21062 -72.3253,36.48486 -107.33333,63.47197 -18.98335,14.63393 -60.93052,56.23755 -76.50923,75.88259 -86.00281,108.45114 -120.09108,244.39213 -95.45514,380.66666 12.09112,66.88243 39.18212,132.00071 77.8723,187.18052 44.30908,63.1936 108.71511,117.799 177.94379,150.8662 9.98156,4.7678 20.43571,9.8971 23.23145,11.3986 2.79576,1.5015 10.62383,4.7356 17.39572,7.187 20.5684,7.4454 30.718,13.389 39.6899,23.2425 15.9783,17.5481 18.6706,26.4987 15.8799,52.7918 -3.2722,30.8305 -11.0414,41.9029 -39.0506,55.6537 -12.116,5.9482 -19.08904,8.4048 -31.29394,11.0249 -39.16928,8.4085 -97.49939,26.4527 -139.03748,43.0109 -231.01046,92.086 -415.0415,287.315 -492.68762,522.667 l -7.59568,23.0231 5.1411,6.3103 c 8.98574,11.029 64.4249,65.9421 83.90516,83.1088 76.27901,67.22 154.05714,119.7432 240.57037,162.4564 109.10275,53.8658 218.41431,88.0458 334.66669,104.6449 7.7,1.0993 33.8,3.9183 58,6.2643 40.4194,3.9181 48.1774,4.2749 95.3333,4.3838 37.8413,0.087 59.5687,-0.5109 82.6667,-2.2762 177.8685,-13.5947 339.42,-64.7499 490.6666,-155.3692 22.1266,-13.2572 62.4648,-40.065 80.5812,-53.5522 17.2488,-12.8413 17.2816,-12.8602 25.4558,-14.6921 22.924,-5.1373 44.1118,16.1455 39.2738,39.45 -2.2482,10.8299 -7.199,16.2324 -29.5514,32.2473 -172.8364,123.833 -369.6923,197.7514 -577.7594,216.9455 -49.9519,4.6081 -123.7048,5.9811 -172.6666,3.2141 z"
     style="fill:#040404;stroke-width:1.33333337" />
</svg>
